<?xml version="1.0" encoding="UTF-8"?>
<svg id="Layer_1" data-name="Layer 1" xmlns="http://www.w3.org/2000/svg" version="1.1" viewBox="0 0 58.75 32.47">
  <defs>
    <style>
      .cls-1 {
        fill: #000;
      }

      .cls-1, .cls-2 {
        stroke-width: 0px;
      }

      .cls-2 {
        fill: #fff;
      }
    </style>
  </defs>
  <symbol id="text">
  <g fill="#ffffff" stroke-width="0">
    <path class="cls-2" d="M9.16,32.47c-1.03,0-1.97-.39-2.71-1.13-.74-.74-1.13-1.68-1.13-2.71v-10.12h-1.66c-.99,0-1.88-.37-2.58-1.07-.7-.7-1.07-1.6-1.07-2.6s.37-1.9,1.07-2.6c.7-.7,1.59-1.07,2.58-1.07h1.62v-3.57c-.06,0-.38-.04-.38-.04-1.05-.14-1.92-.67-2.52-1.54-.41-.59-.63-1.29-.63-2,0-.31.05-.64.14-.96.22-.9.78-1.7,1.59-2.27l.07-.05.07-.04c.66-.39,1.37-.59,2.11-.59h.46l.15.02c3.4.52,6.93,1.07,10.6,1.66.68.14,1.24.38,1.73.75.41.31.75.68,1,1.11,1.94-1.48,4.29-2.64,7-3.46.4-.12.8-.18,1.21-.18.56,0,1.12.12,1.66.35.86.41,1.52.97,2.05,1.69l.07.09.05.1s.05.08.08.11c.48.59.72,1.26.72,1.97,0,.38-.08.76-.24,1.12-.36.97-1.12,1.67-2.13,1.94-.65.16-1.28.36-1.89.58.41.25.81.5,1.19.75.92.56,1.47,1.56,1.47,2.71,0,.06,0,.12,0,.17.32.17.61.38.87.65.7.7,1.07,1.6,1.07,2.6s-.37,1.9-1.07,2.6c-.7.7-1.61,1.07-2.62,1.07h-.72c.12.36.19.74.19,1.14,0,.86-.29,1.64-.85,2.28.56.64.85,1.42.85,2.27,0,.68-.19,1.31-.55,1.86.13.1.26.21.38.34.68.68,1.04,1.55,1.04,2.52s-.36,1.84-1.04,2.52c-.68.68-1.55,1.04-2.52,1.04H9.16ZM13.63,11.16c.39-.79.82-1.55,1.27-2.27-.02,0-1.68-.24-1.68-.24v2.51h.41Z"/>
    <path class="cls-2" d="M46.84,31.5c-.28,0-.56-.04-.85-.11l-.77-.14c-1.07-.2-1.9-.85-2.36-1.82-.24-.46-.37-.96-.37-1.46,0-.54.12-1.07.37-1.55.04-.07.07-.14.11-.21-.38-.01-.77-.02-1.17-.02-1.78,0-3.67.1-5.61.3h-.1s-.29.01-.29.01c-.88,0-1.7-.31-2.37-.89-.82-.77-1.22-1.7-1.22-2.73v-.08l.03-.39c.02-1.02.41-1.95,1.11-2.67.7-.72,1.6-1.15,2.6-1.23,1.92-.11,3.74-.16,5.44-.16s3.43.06,5.03.19c.18-.39.43-.9.76-1.59-.48-.13-.94-.36-1.35-.69-.76-.67-1.2-1.48-1.33-2.42l-.02-.13v-.32c0-.8.25-1.56.73-2.22l.07-.09c.61-.74,1.44-1.2,2.4-1.33,1.29-.18,2.59-.39,3.86-.61.33-.06.67-.09.97-.09,1.36,0,2.6.55,3.58,1.6.62.66,1,1.46,1.12,2.36l.02.13v.44c0,.69-.16,1.35-.46,1.96-.74,1.4-1.47,2.85-2.21,4.35.4.09.79.18,1.18.28,1.02.25,1.84.85,2.38,1.73.4.65.61,1.36.61,2.11,0,.23-.02.47-.06.7l-.06.38c-.19,1.07-.81,1.96-1.76,2.5-.53.33-1.17.51-1.84.51-.31,0-.63-.04-.95-.12-.92-.27-1.83-.5-2.75-.72-.22.55-.41,1.05-.57,1.5-.35.94-.98,1.68-1.84,2.16-.64.39-1.34.59-2.07.59ZM37.28,15.97c-.87,0-1.71-.27-2.42-.78-.81-.58-1.38-1.4-1.61-2.36-.34-1.59-.5-2.85-.5-3.92,0-2.85,1.17-5.17,3.37-6.7C38.16.78,40.91.09,44.53.09c2.48,0,4.84.17,7.02.49.98.11,1.89.6,2.56,1.39.63.74.98,1.66,1.02,2.64v.61c.05.97-.37,1.95-1.18,2.66l-.09.07c-.64.5-1.39.77-2.17.77-.23,0-.46-.02-.7-.07-1.85-.35-4.03-.52-6.46-.52-2.29,0-3,.43-3.17.56-.15.12-.49.38-.49,1.32,0,.14.03.56.26,1.54.07.23.12.56.12.87,0,.69-.18,1.33-.55,1.92-.66.96-1.57,1.5-2.61,1.6l-.55.04h-.26Z"/>
  </g>
  <g fill="#000000" stroke-width="0">
    <path class="cls-1" d="M29.16,13.16c.48,0,.88.16,1.2.48.32.32.48.72.48,1.19s-.16.86-.48,1.19c-.32.32-.72.48-1.2.48H11.47c-.17,0-.25.07-.25.22v1.19c0,.17.08.25.25.25h13.69c.4,0,.74.15,1.03.44.29.29.44.64.44,1.05s-.15.75-.44,1.05c-.29.29-.64.44-1.03.44h-13.69c-.17,0-.25.07-.25.22v1.12c0,.17.08.25.25.25h13.69c.4,0,.74.15,1.03.44.29.29.44.64.44,1.03s-.15.74-.44,1.03c-.29.29-.64.44-1.03.44h-13.69c-.17,0-.25.08-.25.25v1.19c0,.17.08.25.25.25h14.47c.44,0,.81.15,1.11.45.3.3.45.67.45,1.11s-.15.81-.45,1.11c-.3.3-.67.45-1.11.45H9.16c-.5,0-.93-.18-1.3-.55-.36-.36-.55-.8-.55-1.3v-11.91c0-.15-.07-.22-.22-.22h-3.44c-.46,0-.85-.16-1.17-.48-.32-.32-.48-.72-.48-1.19s.16-.86.48-1.19c.32-.32.71-.48,1.17-.48h3.38c.17,0,.25-.08.25-.25v-6.88c0-.15-.08-.23-.25-.25-.46-.06-1.06-.14-1.81-.22h-.06c-.48-.06-.85-.29-1.12-.69-.19-.27-.28-.56-.28-.88,0-.12.02-.26.06-.41.12-.5.4-.9.81-1.19.35-.21.72-.31,1.09-.31h.31c3.4.52,6.93,1.07,10.59,1.66.31.06.59.19.84.38s.44.42.56.69c.12.27.19.57.19.91-.02.44-.21.79-.56,1.06-.29.23-.6.34-.94.34h-.25c-.35-.06-.79-.14-1.31-.22-1.58-.23-2.81-.41-3.69-.53-.17-.02-.25.05-.25.22v6.31c0,.17.08.25.25.25h3.19c.17,0,.28-.07.34-.22,1.33-3,3.11-5.43,5.34-7.28,1.85-1.54,4.16-2.73,6.91-3.56.21-.06.42-.09.62-.09.29,0,.58.06.88.19.48.23.89.57,1.22,1.03.08.15.18.28.28.41.17.21.25.44.25.69,0,.12-.03.25-.09.38-.12.4-.39.65-.78.75-1.98.5-3.79,1.25-5.44,2.25-.04.02-.06.06-.06.11s.03.1.09.14c1.56.85,2.94,1.67,4.12,2.44.38.23.56.57.56,1.03s-.18.81-.53,1.06l-.78.56s-.03.05-.02.08.04.05.08.05h1.5ZM21.59,9.94c-.12-.08-.24-.07-.34.03-.85.88-1.6,1.86-2.25,2.97-.02.06-.02.11,0,.16.02.04.05.06.09.06h6.94s.07-.02.09-.06c.02-.04.01-.07-.03-.09-1.4-1.08-2.9-2.1-4.5-3.06Z"/>
    <path class="cls-1" d="M50.34,25c-.17-.02-.28.04-.34.19-.46,1.12-.83,2.08-1.12,2.88-.19.5-.51.88-.97,1.12-.33.21-.69.31-1.06.31-.12,0-.26-.02-.41-.06l-.84-.16c-.44-.08-.75-.33-.94-.75-.1-.19-.16-.38-.16-.56,0-.23.05-.45.16-.66.19-.35.42-.82.69-1.41.19-.46.38-.9.56-1.31.02-.04.02-.09,0-.14-.02-.05-.06-.08-.12-.08-1.27-.12-2.59-.19-3.97-.19-1.85,0-3.79.1-5.81.31h-.19c-.4,0-.75-.14-1.06-.41-.35-.33-.53-.74-.53-1.22l.03-.38c0-.54.18-1,.55-1.38s.81-.58,1.33-.62c1.85-.1,3.61-.16,5.28-.16,2.12,0,4.12.09,6,.28.17.02.28-.04.34-.19.02-.06.88-1.85,2.56-5.38.04-.04.05-.08.02-.12-.03-.04-.08-.06-.14-.06-.4.02-1.02.07-1.88.16-.06.02-.12.03-.19.03-.38,0-.72-.12-1.03-.38-.33-.29-.53-.67-.59-1.12v-.19c0-.38.11-.72.34-1.03.29-.35.67-.56,1.12-.62,1.33-.19,2.65-.4,3.94-.62.23-.04.44-.06.62-.06.81,0,1.52.32,2.12.97.33.35.53.77.59,1.25v.31c0,.38-.08.73-.25,1.06-1.06,2.02-2.14,4.17-3.22,6.44-.06.15-.02.24.12.28,1.15.23,2.27.48,3.38.75.5.12.89.41,1.16.84.21.33.31.69.31,1.06,0,.12-.01.25-.03.38l-.06.38c-.08.48-.34.84-.78,1.09-.27.17-.55.25-.84.25-.15,0-.3-.02-.47-.06-1.35-.4-2.76-.74-4.22-1.03ZM34.75,8.91c0-2.21.84-3.9,2.52-5.06s4.1-1.75,7.27-1.75c2.4,0,4.64.16,6.72.47.54.06.98.3,1.33.7s.53.88.55,1.42v.53c.02.46-.15.84-.5,1.16-.29.23-.6.34-.94.34-.1,0-.21-.01-.31-.03-2-.38-4.28-.56-6.84-.56-2.1,0-3.57.33-4.41.98s-1.25,1.62-1.25,2.89c0,.46.1,1.12.31,2,.04.15.06.28.06.41,0,.31-.08.6-.25.88-.27.4-.64.61-1.09.66l-.44.03h-.19c-.46,0-.88-.14-1.25-.41-.44-.31-.72-.72-.84-1.22-.29-1.38-.44-2.52-.44-3.44Z"/>
  </g>
  </symbol>
</svg>