<?xml version="1.0" encoding="UTF-8"?>
<svg id="Layer_1" data-name="Layer 1" xmlns="http://www.w3.org/2000/svg" version="1.1" viewBox="0 0 65.09 33.81">
  <defs>
    <style>
      .cls-1 {
        fill: #000;
      }

      .cls-1, .cls-2 {
        stroke-width: 0px;
      }

      .cls-2 {
        fill: #fff;
      }
    </style>
  </defs>
  <symbol id="text">
  <g fill="#ffffff" stroke-width="0">
    <path class="cls-2" d="M3.78,32.75c-1.01,0-1.93-.39-2.66-1.12-.73-.73-1.12-1.66-1.12-2.68s.39-1.95,1.12-2.68c.44-.44.96-.76,1.52-.94-.07-.06-.13-.12-.19-.18-.74-.74-1.13-1.68-1.13-2.71V4.53c0-1.03.39-1.97,1.13-2.71.74-.74,1.68-1.13,2.71-1.13h.41c.93,0,1.77.35,2.43,1.01.19.19.36.4.49.62h15.5c.14-.22.3-.43.49-.62.66-.66,1.5-1.01,2.43-1.01h.59c1.03,0,1.97.39,2.71,1.13.74.74,1.13,1.68,1.13,2.71v17.91c0,1.03-.39,1.97-1.13,2.71-.05.05-.1.1-.16.15.61.17,1.17.5,1.64.98.73.73,1.12,1.66,1.12,2.68s-.39,1.95-1.12,2.68c-.73.73-1.65,1.12-2.66,1.12H3.78Z"/>
    <path class="cls-2" d="M53.31,33.81c-.89,0-1.69-.33-2.32-.96-.15-.15-.28-.31-.4-.48h-3.66c-.58,0-1.13-.15-1.62-.44-.53.45-1.15.78-1.86.97l-.1.03-.1.02c-.36.06-.71.09-1.05.09-.47,0-.95-.07-1.42-.2-1.81-.59-3.84-1.07-6.12-1.45-1.01-.16-1.83-.75-2.32-1.66-.25-.45-.39-.98-.39-1.53,0-.39.07-.77.22-1.14.28-.81.79-1.48,1.47-1.96l.12-.08c.1-.06.2-.11.3-.16-.42-.18-.8-.45-1.14-.79-.72-.72-1.1-1.65-1.1-2.68s.38-1.96,1.1-2.68c.54-.54,1.2-.89,1.94-1.03-.73-1.6-1.54-3.05-2.4-4.31-.51-.71-.81-1.55-.88-2.48v-.15s0-.22,0-.22c0-.79.18-1.54.52-2.24l.07-.13.04-.1.07-.13c.47-.89,1.24-1.46,2.19-1.62.19-.05.38-.07.57-.07.36,0,.71.07,1.03.19v-2.57c0-1.06.4-2.01,1.15-2.75.74-.72,1.67-1.1,2.69-1.1,1.08,0,2.03.39,2.76,1.12.15.15.28.3.4.46.61-.59,1.33-1,2.12-1.2.4-.09.75-.13,1.1-.13.5,0,1.01.09,1.51.27,1.84.73,3.48,1.55,4.97,2.46.64.39,1.1.96,1.34,1.62.23-.64.66-1.18,1.26-1.58.77-.53,1.51-1.06,2.21-1.57.73-.53,1.54-.84,2.42-.93.18-.03.36-.05.54-.05.8,0,1.56.2,2.28.59,1.09.57,1.69,1.58,1.69,2.78,0,1.08-.53,2.03-1.44,2.6-.1.06-.2.13-.31.19.51.66.78,1.46.78,2.33v9.44c0,.44-.07.86-.21,1.25.31.16.59.37.84.63.59.61.9,1.38.9,2.23s-.32,1.63-.93,2.24c-.16.16-.34.31-.52.43.05.23.08.46.08.71,0,.38-.07.75-.19,1.09,0,0,0,0,.01.01.61.61.93,1.38.93,2.24s-.34,1.67-.96,2.26c-.6.58-1.36.88-2.19.88h-4.03c-.12.17-.25.33-.4.48-.63.63-1.43.96-2.32.96h-1.25ZM44.38,26.1c0-.07,0-.14,0-.21,0-.12,0-.24.02-.36-.21-.08-.4-.18-.58-.31v.71c.19.06.38.12.57.18ZM43.81,10.63c.34.01.67.08.97.19v-1.85c0-.69.17-1.33.48-1.9-.36-.16-.74-.3-1.12-.45-.12-.05-.23-.1-.33-.15v4.16Z"/>
  </g>
  <g fill="#000000" stroke-width="0">
    <path class="cls-1" d="M29.03,30.75H3.78c-.48,0-.9-.18-1.25-.53-.35-.35-.53-.78-.53-1.27s.18-.91.53-1.27c.35-.35.77-.53,1.25-.53h9.69c.15,0,.21-.07.19-.22-.08-.65-.22-1.46-.41-2.44-.04-.15-.14-.22-.28-.22h-7.81c-.5,0-.93-.18-1.3-.55-.36-.36-.55-.8-.55-1.3V4.53c0-.5.18-.93.55-1.3.36-.36.8-.55,1.3-.55h.41c.4,0,.73.14,1.02.42s.42.62.42,1.02c0,.12.06.19.19.19h18.09c.12,0,.19-.06.19-.19,0-.4.14-.73.42-1.02s.62-.42,1.02-.42h.59c.5,0,.93.18,1.3.55.36.36.55.8.55,1.3v17.91c0,.5-.18.93-.55,1.3-.36.36-.8.55-1.3.55h-10.09s-.08.03-.12.08c-.04.05-.05.1-.03.14.08.31.2.73.34,1.25.17.5.29.9.38,1.19.04.15.15.22.31.22h10.75c.48,0,.9.18,1.25.53.35.35.53.78.53,1.27s-.18.91-.53,1.27c-.35.35-.77.53-1.25.53ZM10.03,20.75c.15,0,.22-.08.22-.25v-12.44c0-.17-.07-.25-.22-.25h-2.81c-.15,0-.22.08-.22.25v12.44c0,.17.07.25.22.25h2.81ZM13.91,18.56c-.15,0-.22.08-.22.25v1.69c0,.17.07.25.22.25h4.44c.17,0,.25-.08.25-.25v-1.69c0-.17-.08-.25-.25-.25h-4.44ZM13.91,13.16c-.15,0-.22.07-.22.22v2c0,.15.07.22.22.22h4.44c.17,0,.25-.07.25-.22v-2c0-.15-.08-.22-.25-.22h-4.44ZM18.34,10.19c.17,0,.25-.08.25-.25v-1.88c0-.17-.08-.25-.25-.25h-4.44c-.15,0-.22.08-.22.25v1.88c0,.17.07.25.22.25h4.44ZM22.22,7.81c-.15,0-.22.08-.22.25v12.44c0,.17.07.25.22.25h3c.17,0,.25-.08.25-.25v-12.44c0-.17-.08-.25-.25-.25h-3Z"/>
    <path class="cls-1" d="M42,18.41c-.12.1-.19.24-.19.41v.56c0,.15.08.22.25.22h1.38c.44,0,.8.15,1.09.45.29.3.44.66.44,1.08,0,.12.07.19.22.19h16.72c.33,0,.61.12.84.36.23.24.34.52.34.84s-.11.6-.34.83c-.23.23-.51.34-.84.34h-5.84c-.15,0-.22.08-.22.25v.62c0,.15.07.22.22.22h4.56c.29,0,.55.11.77.33s.33.48.33.78-.11.56-.33.78-.47.33-.77.33h-4.56c-.15,0-.22.07-.22.22v.62c0,.15.07.22.22.22h5.25c.31,0,.58.11.81.34.23.23.34.5.34.83s-.11.59-.34.81-.5.33-.81.33h-5.31c-.1,0-.16.05-.16.16,0,.35-.12.66-.38.91s-.55.38-.91.38h-1.25c-.35,0-.66-.12-.91-.38s-.38-.55-.38-.91c0-.1-.05-.16-.16-.16h-4.94c-.31,0-.58-.11-.81-.33s-.34-.49-.34-.81.11-.6.34-.83c.23-.23.5-.34.81-.34h4.84c.17,0,.25-.07.25-.22v-.62c0-.15-.08-.22-.25-.22h-4.31c-.31,0-.57-.11-.78-.33s-.31-.48-.31-.78.1-.56.31-.78.47-.33.78-.33h4.31c.17,0,.25-.07.25-.22v-.62c0-.17-.08-.25-.25-.25h-6.5c-.15,0-.27-.05-.36-.14s-.14-.2-.14-.33c0-.04-.02-.06-.06-.06h-2.66c-.17,0-.25.07-.25.22v3.88c0,.15.07.24.22.28.65.15,1.25.31,1.81.5.44.12.71.41.81.84.02.1.03.22.03.34,0,.29-.1.55-.31.78l-.09.16c-.35.4-.8.67-1.34.81-.25.04-.49.06-.72.06-.29,0-.58-.04-.88-.12-1.83-.6-3.95-1.1-6.34-1.5-.4-.06-.69-.27-.88-.62-.1-.19-.16-.39-.16-.59,0-.15.03-.29.09-.44.15-.44.4-.78.75-1.03.31-.19.64-.28.97-.28h.25c.6.08,1.22.17,1.84.25.15.02.22-.04.22-.19v-3.12c0-.15-.07-.22-.22-.22h-2.25c-.5,0-.92-.17-1.27-.52s-.52-.77-.52-1.27.17-.92.52-1.27.77-.52,1.27-.52h2s.08-.02.11-.06c.03-.04.04-.09.02-.16-1.04-2.77-2.25-5.16-3.62-7.16-.31-.44-.49-.94-.53-1.5v-.22c0-.48.1-.93.31-1.34.06-.1.11-.21.16-.31.19-.35.47-.55.84-.59.06-.02.11-.03.16-.03.31,0,.56.15.75.44.77,1.23,1.5,2.64,2.19,4.22.02.04.04.06.06.05.02-.01.03-.03.03-.05V3.84c0-.52.18-.96.55-1.31.36-.35.8-.53,1.3-.53h.03c.52,0,.96.18,1.31.53.35.35.53.79.53,1.31v10.41s.02.04.05.05c.03.01.06,0,.08-.02.25-.42.48-.77.69-1.06.21-.38.53-.57.97-.59h.09c.38,0,.68.16.91.47.29.4.44.83.44,1.31,0,.6-.2,1.11-.59,1.53-.94.98-1.75,1.8-2.44,2.47ZM61.56,18.41c0,.5-.18.93-.55,1.3-.36.36-.8.55-1.3.55h-11.09c-.52,0-.96-.18-1.31-.55-.35-.36-.53-.8-.53-1.3v-9.44c0-.52.18-.96.53-1.31.35-.35.79-.53,1.31-.53h.69s.07-.02.08-.05,0-.06-.02-.08c-1.29-.85-2.8-1.6-4.53-2.25-.35-.15-.57-.4-.66-.75-.02-.08-.03-.17-.03-.25,0-.27.09-.5.28-.69.38-.38.8-.62,1.28-.75.19-.04.39-.06.59-.06.27,0,.55.05.84.16,1.67.67,3.2,1.43,4.59,2.28.38.23.56.55.56.97,0,.46-.2.81-.59,1.06l-.41.28s-.03.05-.02.08.04.05.08.05h5.34s.07-.02.08-.06c.01-.04,0-.07-.05-.09l-.28-.22c-.35-.25-.53-.58-.53-1,0-.46.19-.81.56-1.06.81-.56,1.57-1.1,2.28-1.62.46-.33.97-.52,1.53-.56.08-.02.17-.03.25-.03.46,0,.9.11,1.31.34l.06.03c.4.21.59.54.59,1,0,.4-.17.7-.5.91-1,.62-2.23,1.38-3.69,2.25-.04.02-.06.05-.05.08s.04.05.08.05h1.34c.5,0,.93.18,1.3.53.36.35.55.79.55,1.31v9.44ZM57.72,17.91c.15,0,.22-.08.22-.25v-.88c0-.15-.07-.22-.22-.22h-7.31c-.17,0-.25.07-.25.22v.88c0,.17.08.25.25.25h7.31ZM57.72,14.37c.15,0,.22-.07.22-.22v-.91c0-.17-.07-.25-.22-.25h-7.31c-.17,0-.25.08-.25.25v.91c0,.15.08.22.25.22h7.31ZM57.72,10.84c.15,0,.22-.08.22-.25v-.88c0-.15-.07-.22-.22-.22h-7.31c-.17,0-.25.07-.25.22v.88c0,.17.08.25.25.25h7.31Z"/>
  </g>
  </symbol>
</svg>